<?xml version="1.0" encoding="UTF-8" standalone="no"?>
<svg width="17px" height="11px" viewBox="0 0 17 11" version="1.1" xmlns="http://www.w3.org/2000/svg" xmlns:xlink="http://www.w3.org/1999/xlink" xmlns:sketch="http://www.bohemiancoding.com/sketch/ns">
    <!-- Generator: Sketch 3.4.3 (16044) - http://www.bohemiancoding.com/sketch -->
    <title>Fill 1 + Line + Fill 2</title>
    <desc>Created with Sketch.</desc>
    <defs></defs>
    <g id="Page-1" stroke="none" stroke-width="1" fill="none" fill-rule="evenodd" sketch:type="MSPage">
        <g id="HoboJet_Homepage" sketch:type="MSArtboardGroup" transform="translate(-315.000000, -1472.000000)" fill="#FFFFFF">
            <g id="Featured-Deals" sketch:type="MSLayerGroup" transform="translate(-327.000000, 509.000000)">
                <g id="Photo3" transform="translate(462.000000, 781.000000)" sketch:type="MSShapeGroup">
                    <g id="Fill-1-+-Line-+-Fill-2" transform="translate(180.000000, 182.000000)">
                        <path d="M1.98116205,10 L15.9811621,10" id="Line" stroke="#FFFFFF" stroke-width="2" stroke-linecap="square"></path>
                        <g id="Fill-1-+-Fill-2">
                            <path d="M16.6360498,1.1524214 C16.5167313,0.732625691 15.4090117,0.695806222 14.9636485,0.839590283 C13.342027,1.36231925 11.7204055,1.88424196 10.0990615,2.40697093 L4.46889367,0.22978461 L3.87507607,0.843890367 L6.2844771,3.64485763 C4.73139434,4.16436154 1.88828447,5.12489282 1.37105269,5.29098357 C0.927909371,5.43369261 4.24357596,5.88923276 5.00332951,5.76748663 C5.00332951,5.76748663 10.8446633,3.9219443 13.4266599,3.09041554 C14.0898487,2.8762176 14.754425,2.66201966 15.4187237,2.44782173 C15.8621445,2.30511269 16.7661902,1.60796156 16.6360498,1.1524214 L16.6360498,1.1524214 Z" id="Fill-1"></path>
                            <path d="M0.450912897,3.29843211 L0,3.70156499 L1.19651472,5.05367268 L2.93079509,4.46160485 L0.450912897,3.29843211 Z" id="Fill-2"></path>
                        </g>
                    </g>
                </g>
            </g>
        </g>
    </g>
</svg>