<?xml version="1.0" encoding="utf-8"?>
<!-- Generator: Adobe Illustrator 22.0.1, SVG Export Plug-In . SVG Version: 6.00 Build 0)  -->
<svg version="1.1" id="Layer_1" xmlns="http://www.w3.org/2000/svg" xmlns:xlink="http://www.w3.org/1999/xlink" x="0px" y="0px"
	 viewBox="0 0 999 999" style="enable-background:new 0 0 999 999;" xml:space="preserve">
<g>
	<path d="M135.8,562.9h-30.5v1.8h6.7v57.4h-6.7v1.8h30.5c4.4,0,7.9-2.7,7.9-6.1V569C143.7,565.6,140.2,562.9,135.8,562.9z
		 M137.6,617.9c0,2.3-2,4.3-4.3,4.3h-15.3v-57.4h15.3c2.3,0,4.3,2,4.3,4.3V617.9z"/>
	<polygon points="197.5,564.7 204.2,564.7 204.2,622.2 197.5,622.2 197.5,624 234.1,624 234.1,611.8 230.5,611.8 230.5,622.2 
		210.3,622.2 210.3,594.3 225.6,594.3 225.6,592.5 210.3,592.5 210.3,564.7 230.5,564.7 230.5,575.1 234.1,575.1 234.1,562.9 
		197.5,562.9 	"/>
	<path d="M322.1,562.9h-30.5v1.8h6.7v57.4h-6.7v1.8h19.5v-1.8h-6.7v-23.6h17.7c4.4,0,7.9-2.7,7.9-6.1V569
		C330,565.6,326.5,562.9,322.1,562.9z M323.9,592.5c0,2.4-2,4.3-4.3,4.3h-15.3v-32h15.3c2.3,0,4.3,2,4.3,4.3V592.5z"/>
	<path d="M407.4,564.7h4.2v-1.8h-15.3v1.8h3.2l-15.3,57.4h-5.3v1.8h12.2v-1.8H386l5.7-21.7h18.4l5.5,21.7h-4.2v1.8h15.3v-1.8h-5
		L407.4,564.7z M392.2,598.6l9-33.8l8.4,33.8H392.2z"/>
	<path d="M517.9,624v-1.8h-5v-19.3c0-2.1-1.5-4-3.8-5.1c2.3-1.1,3.8-3.1,3.8-5.3V569c0-3.4-3.5-6.1-7.9-6.1h-30.5v1.8h6.7v57.4h-6.7
		v1.8H494v-1.8h-6.7v-23.6h15.3c2.3,0,4.3,2,4.3,4.3V624H517.9z M502.6,596.7h-15.3v-32h15.3c2.3,0,4.3,2,4.3,4.3v23.5
		C506.8,594.9,504.9,596.7,502.6,596.7z"/>
	<polygon points="571.7,575.1 575.4,575.1 575.4,564.7 587,564.7 587,622.2 580.3,622.2 580.3,624 599.8,624 599.8,622.2 
		593.1,622.2 593.1,564.7 604.7,564.7 604.7,575.1 608.4,575.1 608.4,562.9 571.7,562.9 	"/>
	<path d="M690.2,564.7h6.7v53.1c0,2.3-2,4.3-4.3,4.3h-13.4c-2.3,0-4.3-2-4.3-4.3v-53.1h6.7v-1.8h-19.5v1.8h6.7v53.1
		c0,3.4,3.5,6.1,7.9,6.1h15.9c4.4,0,7.9-2.7,7.9-6.1v-53.1h6.7v-1.8h-17.1V564.7z"/>
	<path d="M799.6,602.9c0-2.1-1.5-4-3.8-5.1c2.3-1.1,3.8-3.1,3.8-5.3V569c0-3.4-3.5-6.1-7.9-6.1h-30.5v1.8h6.7v57.4h-6.7v1.8h19.5
		v-1.8h-6.7v-23.6h15.3c2.3,0,4.3,2,4.3,4.3V624h11.1v-1.8h-5V602.9z M793.5,592.5c0,2.4-2,4.3-4.3,4.3h-15.3v-32h15.3
		c2.3,0,4.3,2,4.3,4.3V592.5z"/>
	<polygon points="893.8,575.1 893.8,562.9 857.1,562.9 857.1,564.7 863.8,564.7 863.8,622.2 857.1,622.2 857.1,624 893.8,624 
		893.8,611.8 890.1,611.8 890.1,622.2 869.9,622.2 869.9,594.3 885.2,594.3 885.2,592.5 869.9,592.5 869.9,564.7 890.1,564.7 
		890.1,575.1 	"/>
	<path d="M406.3,668.4h-10.2c-2.8,0-5.1,1.7-5.1,3.9v31.5c0,2.2,2.3,3.9,5.1,3.9h10.2c2.8,0,5.1-1.7,5.1-3.9v-3.9H409v3.9
		c0,1.5-1.3,2.8-2.8,2.8h-8.7c-1.5,0-2.8-1.3-2.8-2.8v-31.5c0-1.5,1.3-2.8,2.8-2.8h8.7c1.5,0,2.8,1.3,2.8,2.8v3.9h2.4v-3.9
		C411.4,670.1,409.1,668.4,406.3,668.4z"/>
	<polygon points="471.6,706.6 458.6,706.6 458.6,669.6 462.9,669.6 462.9,668.4 450.3,668.4 450.3,669.6 454.7,669.6 454.7,706.6 
		450.3,706.6 450.3,707.7 473.9,707.7 473.9,699.9 471.6,699.9 	"/>
	<path d="M531.7,669.6h4.3v34.2c0,1.5-1.3,2.8-2.8,2.8h-8.7c-1.5,0-2.8-1.3-2.8-2.8v-34.2h4.3v-1.2h-12.6v1.2h4.3v34.2
		c0,2.2,2.3,3.9,5.1,3.9h10.2c2.8,0,5.1-1.7,5.1-3.9v-34.2h4.3v-1.2h-11V669.6z"/>
	<path d="M602.9,668.4h-19.7v1.2h4.3v37h-4.3v1.2h19.7c2.8,0,5.1-1.7,5.1-3.9v-12.4c0-1.3-0.9-2.6-2.4-3.3c1.5-0.7,2.4-2,2.4-3.4
		v-12.3C608,670.1,605.8,668.4,602.9,668.4z M604.1,703.8c0,1.5-1.3,2.8-2.8,2.8h-9.8v-17.9h9.8c1.5,0,2.8,1.3,2.8,2.8V703.8z
		 M604.1,684.7c0,1.6-1.3,2.8-2.8,2.8h-9.8v-17.9h9.8c1.5,0,2.8,1.3,2.8,2.8V684.7z"/>
	<path d="M499.5,506c59.2,0,107.4-48.2,107.4-107.4c0-10.3-1.5-20.4-4.2-29.8c-0.4-1.3-0.8-2.6-1.2-3.9
		c-14.2-42.7-54.5-73.7-102-73.7c-47.4,0-87.8,30.9-102,73.7c-0.4,1.3-0.8,2.6-1.2,3.9c-2.7,9.5-4.2,19.5-4.2,29.8
		C392.1,457.9,440.3,506,499.5,506z M400.4,368.8h62.8c4.9,0,9.1,4.2,9.1,9.1v12.7v34.7v11.5c0,4.9-4.2,9.1-9.1,9.1h-18.8v3.9h24
		c9.3,0,16.9-5.7,16.9-13v-11.5v-34.7v-12.7c0-7.3-7.5-13-16.9-13h-66.7c14-40.6,52.5-69.8,97.9-69.8c45.4,0,83.9,29.2,97.9,69.8
		h-66.7c-9.3,0-16.9,5.7-16.9,13v12.7v34.7v11.5c0,7.3,7.5,13,16.9,13h24v-3.9h-18.8c-4.9,0-9.1-4.2-9.1-9.1v-11.5v-34.7v-12.7
		c0-4.9,4.2-9.1,9.1-9.1h62.8c2.8,9.4,4.4,19.5,4.4,29.8c0,57.2-46.3,103.5-103.5,103.5c-57.2,0-103.5-46.3-103.5-103.5
		C396,388.3,397.5,378.3,400.4,368.8z"/>
</g>
</svg>
