<?xml version="1.0" encoding="UTF-8" standalone="no"?>
<svg width="92px" height="30px" viewBox="0 0 92 30" version="1.1" xmlns="http://www.w3.org/2000/svg" xmlns:xlink="http://www.w3.org/1999/xlink" xmlns:sketch="http://www.bohemiancoding.com/sketch/ns">
    <!-- Generator: Sketch 3.4.3 (16044) - http://www.bohemiancoding.com/sketch -->
    <title>HoboJet + Imported Layers Copy</title>
    <desc>Created with Sketch.</desc>
    <defs>
        <path id="path-1" d="M0.0705329394,0.0151010472 C0.0482123889,0.0640589635 0.0306400283,0.113498828 0.0181405201,0.163340316 C-0.00251613478,0.245833803 0.00608742285,0.311780397 0.039243586,0.363308705 C0.0892822018,0.250974585 0.142121032,0.141090369 0.198368819,0.0324913489 C0.154174129,0.0285152753 0.111521587,0.0227720579 0.0705329394,0.0151010472 L0.0705329394,0.0151010472 Z"></path>
    </defs>
    <g id="Page-1" stroke="none" stroke-width="1" fill="none" fill-rule="evenodd" sketch:type="MSPage">
        <g id="HoboJet_Homepage" sketch:type="MSArtboardGroup" transform="translate(-56.000000, -5068.000000)">
            <g id="Footer" sketch:type="MSLayerGroup" transform="translate(0.000000, 4999.000000)">
                <g id="HoboJet-+-Imported-Layers-Copy" transform="translate(56.000000, 69.000000)">
                    <path d="M36.2928775,8.30411028 C36.0511231,8.28551378 35.8093687,8.26691729 35.5490179,8.26691729 C32.4434038,8.26691729 29.0216495,10.6286717 29.0216495,13.102005 C29.0216495,14.4409524 29.7283161,14.9058647 31.011474,14.9058647 C30.9928775,14.7384962 30.7511231,14.5897243 30.7511231,13.6413033 C30.7511231,11.6700752 31.7181407,10.2567419 33.3546319,9.56867168 L30.6581407,22.2142857 L33.3360354,22.2142857 L34.8237547,15.222005 L37.5574389,15.222005 L36.0697196,22.2142857 L38.7476144,22.2142857 L41.7044565,8.30411028 L39.0265617,8.30411028 L37.8363863,13.8458647 L35.1027021,13.8458647 L36.2928775,8.30411028 Z M46.4002459,12.7486717 C42.5693688,12.7486717 41.3048074,17.2118296 41.3048074,19.3504261 C41.3048074,21.4704261 42.5507723,22.2886717 44.2802459,22.2886717 C46.5676144,22.2886717 48.4272635,20.1314787 48.7248074,16.6911278 C50.0823512,16.4679699 51.3097196,15.9100752 52.0163863,15.147619 L51.8490179,14.6455138 C51.0493688,15.2034085 49.8405968,15.7613033 48.9851582,15.7613033 C48.9293688,15.7613033 48.8549828,15.7613033 48.7805968,15.7241103 C48.7805968,13.7714787 47.9995442,12.7486717 46.4002459,12.7486717 L46.4002459,12.7486717 Z M45.0241056,20.6149875 C44.3174389,20.6149875 44.0756845,20.3360401 44.0756845,19.1086717 C44.0756845,17.2862155 45.228667,13.8830576 46.5490179,13.8830576 C47.0325266,13.8830576 47.2184916,14.1806015 47.2556845,14.9616541 C46.9209477,15.1104261 46.6791933,15.4451629 46.6791933,15.9658647 C46.6791933,16.3377945 46.7907723,16.6539348 47.1812986,16.7469173 C46.8837547,18.9413033 45.9353337,20.6149875 45.0241056,20.6149875 L45.0241056,20.6149875 Z M50.1290179,18.8855138 C50.0360354,19.2760401 49.9988424,19.6293734 49.9988424,19.9455138 C49.9988424,21.4332331 50.891474,22.3258647 52.6023512,22.3258647 C56.5448074,22.3258647 57.6977898,18.2160401 57.6977898,16.0402506 C57.6977898,13.6784962 56.8051582,12.8602506 55.5034038,12.8602506 C55.131474,12.8602506 54.7409477,12.9160401 53.9784916,13.3809524 L54.8711231,9.19674185 L52.1188424,9.56867168 L50.1290179,18.8855138 Z M55.8195442,15.9658647 C55.8195442,17.9184962 54.8525267,20.522005 53.6437547,20.522005 C52.974281,20.522005 52.6581407,20.2058647 52.6581407,19.6665664 C52.6581407,19.536391 52.6767372,19.387619 52.7139302,19.2388471 L53.7367372,14.5153383 C53.9412986,14.273584 54.5735793,14.1806015 54.8339302,14.1806015 C55.5034038,14.1806015 55.8195442,15.0546366 55.8195442,15.9658647 L55.8195442,15.9658647 Z M63.5651582,12.7486717 C59.734281,12.7486717 58.5255091,17.2118296 58.5255091,19.3504261 C58.5255091,21.4704261 59.771474,22.2886717 61.5009477,22.2886717 C63.8441056,22.2886717 65.7037547,20.0384962 65.9269126,16.4679699 C66.9125267,15.9286717 67.4704214,14.7756892 67.8423512,13.9760401 L67.2472635,13.9760401 C67.0427021,14.3293734 66.5777898,15.1290226 65.9269126,15.259198 C65.8153337,13.6041103 65.034281,12.7486717 63.5651582,12.7486717 L63.5651582,12.7486717 Z M62.2448074,20.6149875 C61.5381407,20.6149875 61.2963863,20.3360401 61.2963863,19.1086717 C61.2963863,17.2862155 62.3935793,13.8830576 63.7139302,13.8830576 C64.1788425,13.8830576 64.3834039,14.162005 64.4205968,14.9430576 C64.1044565,15.0918296 63.8998951,15.4079699 63.8998951,15.9100752 C63.8998951,16.3749875 64.048667,16.6353383 64.3462109,16.7469173 C64.0672635,18.9413033 63.1560354,20.6149875 62.2448074,20.6149875 L62.2448074,20.6149875 Z M78.2472635,8.26691729 C75.1416495,8.26691729 71.7198951,10.6286717 71.7198951,13.102005 C71.7198951,14.4409524 72.4265618,14.9058647 73.7097197,14.9058647 C73.6911232,14.7384962 73.4493688,14.5897243 73.4493688,13.6413033 C73.4493688,11.6514787 74.4535793,10.2381454 76.071474,9.56867168 L73.1518249,22.8465664 C72.7241056,24.762005 72.2220004,25.1339348 71.3851582,25.1339348 C70.84586,25.1339348 70.1205968,24.799198 70.1205968,23.8321805 C70.1205968,23.1441103 70.5669126,22.4560401 71.4223512,22.4560401 C71.7942811,22.4560401 72.0732284,22.5490226 72.5381407,22.9395489 C72.6125267,22.6606015 72.6497197,22.4002506 72.6497197,22.1956892 C72.6497197,21.0055138 71.5711232,20.9497243 70.8272635,20.9497243 C69.3581407,20.9497243 68.5584916,22.1770927 68.5584916,23.4416541 C68.5584916,24.9851629 69.5441056,26.0637594 71.3107723,26.0637594 C74.3605968,26.0637594 75.6065618,24.3156892 76.2016495,21.4704261 L78.9911232,8.26691729 L78.2472635,8.26691729 Z M81.1205968,19.2016541 C81.1205968,18.9784962 81.1391933,18.7181454 81.1577898,18.4577945 C83.3893688,18.327619 85.4349828,16.6725313 85.4349828,14.5339348 C85.4349828,13.6041103 85.0444565,12.7486717 83.3893688,12.7486717 C79.5770881,12.7486717 78.3683161,17.2304261 78.3683161,19.3690226 C78.3683161,21.4704261 79.5212986,22.3258647 81.2693688,22.3258647 C83.7427021,22.3258647 85.3234039,20.596391 86.3834039,18.8855138 L85.7511232,18.8855138 C84.8212986,19.9455138 83.928667,20.7637594 82.4595442,20.7637594 C81.5669126,20.7637594 81.1205968,20.4662155 81.1205968,19.2016541 L81.1205968,19.2016541 Z M84.003053,14.4967419 C84.003053,16.0402506 82.7384916,17.4721805 81.3065618,17.5651629 C81.6784916,15.7241103 82.5897197,13.7342857 83.5381407,13.7342857 C83.891474,13.7342857 84.003053,14.0318296 84.003053,14.4967419 L84.003053,14.4967419 Z M90.0191933,13.6598997 L91.1349828,13.6598997 L91.2837547,12.9160401 L90.1679653,12.9160401 C90.5212986,11.2423559 90.800246,9.97779449 90.800246,9.97779449 L88.0479653,10.3497243 L87.4900705,12.9160401 L86.8763863,12.9160401 L86.7276144,13.6598997 L87.3412986,13.6598997 L86.1511232,19.2388471 C86.0767372,19.573584 86.0395442,19.9083208 86.0395442,20.2244612 C86.0395442,21.4146366 86.597439,22.3258647 87.8991933,22.3258647 C88.531474,22.3258647 89.3497197,22.1027068 89.8704214,20.5034085 C89.7216495,20.559198 89.5170881,20.559198 89.3869126,20.559198 C88.8848074,20.559198 88.7360355,20.2802506 88.7360355,19.8897243 C88.7360355,19.6851629 88.7732284,19.462005 88.8290179,19.2388471 L90.0191933,13.6598997 Z" id="HoboJet" fill="#FFFFFF" sketch:type="MSShapeGroup"></path>
                    <g id="Imported-Layers" transform="translate(0.000305, 0.000000)">
                        <path d="M23.8626976,10.8105826 C22.0504312,10.70355 18.4271565,13.6212249 13.074648,13.6212249 C7.72213938,13.6212249 9.61869626,12.5259973 9.64686073,10.729535 C9.70611165,6.94768658 9.13263584,8.18701667 9.45502575,9.42638692 C9.68569849,10.3130915 10.3749571,11.1997559 12.0825604,10.2475867 C14.9928761,8.62478639 20.3131213,9.3327283 22.9940629,10.0406702 C24.6088533,10.467074 25.2661732,10.8934778 23.8626976,10.8105826" id="Fill-1" fill="#5E351E" sketch:type="MSShapeGroup"></path>
                        <path d="M3.43245425,19.0741488 C3.54990092,20.2497412 2.88227297,21.2774157 1.94123856,21.3696686 C1.00020416,21.4618412 0.14151229,20.5839322 0.0238626976,19.4085406 C-0.0936245634,18.2329482 0.573435232,17.205113 1.51487547,17.1127396 C2.45619395,17.0205268 3.31452057,17.898476 3.43245425,19.0741488" id="Fill-2" fill="#F4CAAE" sketch:type="MSShapeGroup"></path>
                        <path d="M19.0921466,19.9818583 C18.709897,21.1010627 19.1259927,22.2514734 20.0217772,22.5510444 C20.9178459,22.8506154 21.9540064,22.1864505 22.3361748,21.0675272 C22.7185461,19.9485637 22.3027346,18.7985547 21.4065442,18.4983009 C20.5105567,18.1987298 19.4744368,18.8628546 19.0921466,19.9818583" id="Fill-3" fill="#F4CAAE" sketch:type="MSShapeGroup"></path>
                        <path d="M20.1729077,20.7604458 C19.8396415,22.5612456 15.5863592,26.8264481 11.0897423,26.612222 C5.49507602,26.3453833 2.29731222,21.3856131 2.00328969,19.6320039 C2.00097647,19.6184692 1.99927199,19.6047739 1.9973646,19.5916809 C1.08713255,13.3712142 4.13141214,10.7245147 5.84193738,9.91267277 C8.45230546,8.67374431 12.8460044,8.31304615 17.1894211,10.6526642 C20.9234057,12.664437 20.839034,17.1611353 20.1729077,20.7604458" id="Fill-4" fill="#F4CAAE" sketch:type="MSShapeGroup"></path>
                        <path d="M20.1729077,20.7604458 C19.8396415,22.5612456 15.5863592,26.8264481 11.0897423,26.612222 C5.49507602,26.3453833 2.29731222,21.3856131 2.00328969,19.6320039 C2.00097647,19.6184692 3.81912735,23.34401 6.29244725,21.8502916 C8.90764469,20.2712281 13.0059412,20.1009798 15.301549,22.6628564 C17.3671333,24.9680554 19.9474295,21.1572097 20.1729077,20.7604458" id="Fill-5" fill="#AF9482" sketch:type="MSShapeGroup"></path>
                        <path d="M7.29959107,18.7473477 C7.23250767,19.6104769 6.74591967,20.2767303 6.21282376,20.2364876 C5.67940319,20.1958835 5.30165831,19.4631212 5.36890404,18.6002731 C5.43590627,17.7376659 5.92281893,17.0711716 6.45591484,17.1118159 C6.98917308,17.1525405 7.36679622,17.884861 7.29959107,18.7473477" id="Fill-6" fill="#FFFFFF" sketch:type="MSShapeGroup"></path>
                        <path d="M19.4180266,12.7194996 C21.4236701,10.16429 19.1743268,7.57293419 14.8376468,6.72329948 C7.09091421,5.58750795 -1.04021882,9.26866934 1.87594081,17.4608268 C1.93527289,17.6267777 2.07017018,14.1785981 3.59474494,12.0312774 L3.59511019,12.0311168 C9.3745906,12.0784682 8.06311622,14.2684012 16.8189406,13.1019657 C19.5723631,12.7351629 20.8898032,17.4506256 20.4600717,18.7156596 C20.8160236,18.4456882 22.4782959,11.3429347 22.4782959,11.3429347 L19.4180266,12.7194996" id="Fill-7" fill="#5E351E" sketch:type="MSShapeGroup"></path>
                        <path d="M16.8484849,19.4913152 C16.7778708,20.4015148 16.2880767,21.1067256 15.7547373,21.0658002 C15.2214791,21.0255173 14.8468591,20.2539984 14.9172703,19.3439595 C14.9883308,18.4331575 15.4782466,17.7275852 16.0113425,17.7685508 C16.5448036,17.8093156 16.919586,18.5803124 16.8484849,19.4913152" id="Fill-8" fill="#FFFFFF" sketch:type="MSShapeGroup"></path>
                        <path d="M5.86782921,20.9935481 C5.84002998,21.3514349 5.28895588,21.6010038 4.63695231,21.5515238 C3.98507049,21.5018028 3.47879983,21.1717083 3.50668022,20.8137011 C3.5346012,20.4560151 4.08595938,20.2056831 4.7378412,20.2558057 C5.38960127,20.3055267 5.89575019,20.6355408 5.86782921,20.9935481" id="Fill-9" fill="#F9A392" sketch:type="MSShapeGroup"></path>
                        <path d="M18.5037769,21.925114 C18.4758559,22.2828803 17.9247412,22.5328107 17.2729,22.4830897 C16.6208964,22.4333687 16.114991,22.1029931 16.1427497,21.7449858 C16.1706706,21.3875007 16.7217853,21.1376105 17.374073,21.1873716 C18.0256707,21.2370926 18.5316979,21.5672272 18.5037769,21.925114" id="Fill-10" fill="#F9A392" sketch:type="MSShapeGroup"></path>
                        <path d="M9.02046492,24.7455157 C9.02046492,24.7455157 10.58197,26.3878349 12.3420469,24.9987394 C12.3420469,24.9987394 10.8657251,27.5612586 9.02046492,24.7455157" id="Fill-11" fill="#847164" sketch:type="MSShapeGroup"></path>
                        <path d="M6.90423324,19.0353921 C6.85585852,19.6601979 6.56098376,20.1479296 6.24597992,20.1241937 C5.93207182,20.0994938 5.71552189,19.573889 5.76418069,18.9484406 C5.81332649,18.322711 6.10836358,17.8349793 6.42263693,17.8596792 C6.73727553,17.8830537 6.95309496,18.4099035 6.90423324,19.0353921" id="Fill-12" fill="#000000" sketch:type="MSShapeGroup"></path>
                        <path d="M16.4118543,19.8508085 C16.3632767,20.4761766 16.0683208,20.9632657 15.7538039,20.9395297 C15.4397741,20.9151913 15.2238735,20.3893054 15.2730598,19.763857 C15.3216781,19.1382881 15.6163499,18.6506769 15.9300551,18.6750152 C16.2449778,18.6984701 16.4602696,19.2253199 16.4118543,19.8508085" id="Fill-13" fill="#000000" sketch:type="MSShapeGroup"></path>
                        <path d="M4.26139891,16.4865281 C4.26139891,16.4865281 5.59194721,14.1852249 7.49325228,16.2618599 C7.49325228,16.2618599 5.38331094,15.5756056 4.26139891,16.4865281" id="Fill-14" fill="#020700" sketch:type="MSShapeGroup"></path>
                        <path d="M18.1063899,16.3192519 C18.1063899,16.3192519 17.1477426,13.8435637 14.9472204,15.6078962 C14.9472204,15.6078962 17.1382462,15.2493266 18.1063899,16.3192519" id="Fill-15" fill="#020700" sketch:type="MSShapeGroup"></path>
                        <path d="M1.13810458,18.1362372 C1.13810458,18.1362372 2.59080716,20.3670555 0.765757211,20.3393033 C0.765757211,20.3393033 1.67891122,19.7512862 1.13810458,18.1362372" id="Fill-16" fill="#CEAD97" sketch:type="MSShapeGroup"></path>
                        <path d="M21.3339415,19.4152477 C21.3339415,19.4152477 19.5534109,21.3998305 21.3610103,21.6488372 C21.3610103,21.6488372 20.5491916,20.929449 21.3339415,19.4152477" id="Fill-17" fill="#CEAD97" sketch:type="MSShapeGroup"></path>
                        <path d="M13.034958,23.490683 C12.5624116,23.1940438 11.775876,22.9645561 10.8735576,22.8956776 C9.99347859,22.8287671 9.19911049,22.9292935 8.68443918,23.1392222 C8.15260134,22.4273443 7.97566025,21.6488372 8.2107971,21.47638 C8.27568903,21.4291892 8.45920454,21.3987461 8.72116663,21.3833238 C9.07517056,21.7933413 9.94502271,22.1281749 10.9819137,22.2076562 C12.0043979,22.2854106 12.9039566,22.0931935 13.3252063,21.7510905 C13.5092899,21.7972371 13.6290093,21.8452311 13.6597305,21.8917391 C13.7809513,22.0759237 13.5886294,22.8491696 13.034958,23.490683" id="Fill-18" fill="#A5294D" sketch:type="MSShapeGroup"></path>
                        <path d="M13.034958,23.490683 C12.5690266,24.0311077 11.8458814,24.4782352 10.8388999,24.4009227 C9.87753348,24.3262609 9.14643399,23.7586061 8.68443918,23.1392222 C9.19911049,22.9292935 9.99347859,22.8287671 10.8735576,22.8956776 C11.775876,22.9645561 12.5624116,23.1940438 13.034958,23.490683" id="Fill-19" fill="#F9848A" sketch:type="MSShapeGroup"></path>
                        <path d="M13.3252063,21.7510905 C12.9039566,22.0931935 12.0043979,22.2854106 10.9819137,22.2076562 C9.94502271,22.1281749 9.07517056,21.7933413 8.72116663,21.3833238 C9.84056253,21.3172567 12.399431,21.5175062 13.3252063,21.7510905" id="Fill-20" fill="#FFFFFF" sketch:type="MSShapeGroup"></path>
                        <g id="Group-23" transform="translate(1.785644, 11.165136)">
                            <mask id="mask-2" sketch:name="Clip 22" fill="white">
                                <use xlink:href="#path-1"></use>
                            </mask>
                            <g id="Clip-22"></g>
                            <path id="Fill-21" fill="#B87349" sketch:type="MSShapeGroup" mask="url(#mask-2)" d="M-0.00251613478,0.0151010472 L0.198368819,0.0151010472 L0.198368819,0.363308705 L-0.00251613478,0.363308705 L-0.00251613478,0.0151010472 Z"></path>
                        </g>
                        <path d="M17.4263031,8.43558151 C16.2848301,8.43558151 15.0041987,8.69840399 14.4038976,8.7611376 C12.2828772,8.98331577 10.1009013,9.35136364 7.8989993,9.85463816 C6.85658902,10.0929214 5.80695499,10.4893641 4.75517007,10.6618213 C4.11164831,10.7672073 2.9497622,11.204736 2.15068649,11.204736 C2.11144291,11.204736 2.07309214,11.2036918 2.03567478,11.2014829 C2.01826475,11.2004788 2.00101706,11.1991936 1.98401285,11.1976273 C1.92776507,11.3062263 1.87492624,11.4161105 1.82488762,11.5284447 C1.89574522,11.6386502 2.07889549,11.6831501 2.32823632,11.6831501 C3.2490199,11.6831501 5.07289296,11.0762567 5.48342875,10.9293026 C7.36996168,10.2538119 9.01754296,9.81712652 10.9992832,9.56386268 C12.3352696,9.39321281 14.0223379,9.10954607 15.3436739,8.84736619 C15.7618393,8.76439075 16.2249299,8.72511196 16.7001953,8.72511196 C17.4482989,8.72511196 18.2267992,8.82234504 18.9097674,8.99958153 C19.0361017,9.03235401 19.1274537,9.04861977 19.1885714,9.04861977 C19.2947766,9.04861977 19.3098328,8.99954137 19.2587797,8.90275008 C18.8604593,8.54803612 18.1732704,8.43558151 17.4263031,8.43558151" id="Fill-24" fill="#441808" sketch:type="MSShapeGroup"></path>
                        <path d="M6.06469647,9.30192377 C6.10016585,9.28806776 6.13551349,9.27368963 6.17086112,9.2591107 C7.39130824,8.74836597 8.6619563,8.48341488 9.98722884,8.29573618 C11.5622886,8.07263427 13.1319103,7.89475518 14.7192667,7.78812412 C15.1140158,7.7615768 15.5388773,7.77278209 15.9688929,7.78398739 C16.6503596,7.80177932 17.3448128,7.81957124 17.9530275,7.68683464 C19.5384359,7.34071543 16.4629887,4.41279909 16.0710804,4.08210223 C15.4388812,3.54810349 14.6961345,3.27034061 14.4329143,2.40419917 C14.3097049,1.99823804 14.7117183,1.74706264 14.6901688,1.32893232 C14.5534047,-1.32479559 10.2572669,0.831521492 9.15978574,1.2690904 C7.9913658,1.73509426 6.58991931,1.78987572 5.34633999,1.95096694 C4.56081895,2.05289901 3.48513075,2.32170568 3.26030193,3.19760658 C3.05507461,3.99659656 3.97403197,4.05595653 4.00280518,4.69562243 C4.02727662,5.23962159 3.2325027,5.8107705 2.99562078,6.26291835 C2.52571232,7.15958319 2.34203448,8.32565714 3.23432892,9.02649031 C4.10673778,9.71170033 5.08969424,9.68447025 6.06469647,9.30192377" id="Fill-25" fill="#C23033" sketch:type="MSShapeGroup"></path>
                        <path d="M2.03567478,11.2014829 C2.83438524,11.248513 4.08003429,10.7723882 4.75517007,10.6618213 C5.80695499,10.4893641 6.85658902,10.0929214 7.8989993,9.85463816 C10.1009013,9.35136364 12.2828772,8.98331577 14.4038976,8.7611376 C15.4204566,8.65490816 18.38771,7.97495941 19.32704,8.96893765 C19.4349903,8.80720383 19.434625,8.36642193 19.409139,8.1593448 C19.3701389,7.84302606 19.2223363,7.58867784 19.0717334,7.31420827 C18.783149,6.78751909 18.373709,6.32565195 17.9714115,5.8829021 C17.4508151,5.31054832 17.1537083,4.37829963 16.5745103,3.89627099 C15.9678783,3.3916711 14.9092755,3.99804241 14.2676611,4.12431286 C11.8129687,4.60718491 9.4119268,5.31657267 6.96770477,5.84442656 C5.89603427,6.07584208 4.82562184,6.32661585 3.73617606,6.27520803 C2.94501401,6.23809801 2.38858298,6.11684785 2.19532759,7.06263125 C1.99350923,8.04925978 1.7007042,8.94588445 1.40104066,9.90492144 C1.10515133,10.8515081 1.45038937,11.1668629 2.03567478,11.2014829" id="Fill-26" fill="#B52B2D" sketch:type="MSShapeGroup"></path>
                        <path d="M4.66548204,3.8924154 C5.17110338,3.74393516 5.50193452,3.23415433 5.9585724,2.99430472 C6.52656953,2.69557709 7.16027025,2.69654098 7.78735597,2.66155957 C8.13478548,2.6420005 8.46115251,2.66806587 8.80383384,2.61380652 C9.9478635,2.43327672 11.061943,2.16274306 12.2025638,1.93156852 C12.4734541,1.87670674 13.9787114,1.48922029 14.157357,2.1816997 C14.2672958,1.87261018 14.3748809,1.54504597 14.4236209,1.22025297 C14.5033255,0.690471285 14.1161654,0.483876108 13.6869615,0.285353565 C13.4315738,0.167195903 13.0828863,0.216394793 12.8118742,0.238202955 C12.0570744,0.299008767 11.3359988,0.584522981 10.6370004,0.856663129 C10.4873309,0.914898551 9.94396755,1.25198123 9.79186315,1.21025254 C10.3160308,1.35351168 11.4166775,1.30154159 11.8897514,1.59135317 C10.858055,1.67782273 9.83930446,1.78879133 8.69352973,1.80433417 C7.31184708,1.82325064 5.93763166,1.89261103 4.54543806,2.29712632 C4.1017461,2.42604749 3.57384479,2.81811245 3.62830693,3.39480377 C3.67765564,3.91844061 4.21765063,4.02410778 4.66548204,3.8924154" id="Fill-27" fill="#E63A3C" sketch:type="MSShapeGroup"></path>
                        <path d="M2.23274495,8.22304231 C2.77099488,7.45843131 2.94245729,7.20805916 3.95601319,7.14351824 C5.25884343,7.06070346 6.54032711,6.98158361 7.81978164,6.69237446 C10.3506074,6.12046246 13.08593,4.29315542 15.7811973,4.66762926 C16.6057185,4.78221248 17.1849164,5.51336823 17.6956512,6.11158658 C17.3071519,5.44862651 17.178342,4.81040645 16.6163106,4.17760832 C16.0479482,3.5380629 14.6289699,4.15857136 13.8389442,4.36444361 C11.0793531,5.08367115 8.29638627,5.87868505 5.47332363,6.33288118 C4.5921083,6.47469447 3.97013602,6.42139902 3.04411725,6.40802495 C2.4969391,6.40003264 2.03092659,7.46674491 2.23274495,8.22304231" id="Fill-28" fill="#D63638" sketch:type="MSShapeGroup"></path>
                        <path d="M3.32056741,7.23577118 C3.1507689,7.28252017 3.01611511,7.34714141 2.89598996,7.43521746 C2.78881074,7.59397927 2.70038078,7.73655565 2.68362007,7.79021256 C2.56264269,8.17781949 2.46560917,8.58181266 2.37628638,8.97729142 C2.30697093,9.28405152 1.93462356,10.6389287 2.59656992,10.6389287 C2.59892373,10.6389287 2.60119637,10.6389287 2.60355017,10.6388886 C2.41126877,10.0597875 2.61820057,9.07203443 2.81766512,8.50233136 C2.96542717,8.08062658 3.23043297,7.67317944 3.32056741,7.23577118" id="Fill-29" fill="#A11F22" sketch:type="MSShapeGroup"></path>
                        <path id="Fill-30" fill="#BE262B" sketch:type="MSShapeGroup" d="M3.34528235,6.84366607 C3.31837594,6.84366607 3.0796678,7.16311748 2.89598996,7.43521746 C3.01611511,7.34714141 3.1507689,7.28252017 3.32056741,7.23577118 C3.34674333,7.10893845 3.35814711,6.97957549 3.3477579,6.84663808 C3.34763615,6.84462996 3.34678392,6.84366607 3.34528235,6.84366607"></path>
                        <path d="M3.99513503,7.14106834 C3.98210795,7.14187159 3.96904028,7.142715 3.95601319,7.14351824 C3.87135743,7.14894016 3.79258618,7.15560711 3.71896895,7.16380024 C3.70683469,7.18729522 3.69778472,7.20805916 3.69311769,7.22504783 C3.60967942,7.52895641 3.64547346,7.84206216 3.60748794,8.14669366 C3.56447016,8.49245141 3.46037523,8.83591991 3.40834805,9.18191864 C3.37312217,9.41518163 3.1366055,10.2469441 3.52084363,10.3371488 C3.47206308,10.2183887 3.53533169,10.1590287 3.54957626,10.0448069 C3.57810598,9.81724701 3.54726304,9.5941451 3.57238381,9.3681515 C3.61430586,8.98946061 3.70642886,8.58952384 3.77635305,8.21593357 C3.83682145,7.89322901 3.94550224,7.50706792 3.99513503,7.14106834" id="Fill-31" fill="#A11F22" sketch:type="MSShapeGroup"></path>
                        <path id="Fill-32" fill="#BE262B" sketch:type="MSShapeGroup" d="M4.01571052,6.65739304 C4.02163561,6.72892221 3.80029692,7.00672525 3.71896895,7.16380024 C3.79258618,7.15560711 3.87135743,7.14894016 3.95601319,7.14351824 C3.96904028,7.142715 3.98210795,7.14187159 3.99513503,7.14106834 C4.01794258,6.97286838 4.02825061,6.80896579 4.01571052,6.65739304"></path>
                        <path id="Fill-33" fill="#A11F22" sketch:type="MSShapeGroup" d="M4.82144181,7.08652786 C4.75407433,7.09130718 4.68646335,7.09596601 4.61901471,7.10054452 C4.42515058,7.85840824 4.35822951,8.65398442 4.43395705,9.42638692 C4.45562828,9.64900688 4.48403625,9.91950037 4.6261167,10.1099503 L4.64904599,10.0964557 C4.71349151,9.17288211 4.74129074,8.25465008 4.79928359,7.32529308 C4.8037477,7.25392457 4.81393399,7.17147125 4.82144181,7.08652786"></path>
                        <path id="Fill-34" fill="#BE262B" sketch:type="MSShapeGroup" d="M4.7640577,6.60976049 C4.70975789,6.77113285 4.66134259,6.93495511 4.61901471,7.10054452 C4.68646335,7.09596601 4.75407433,7.09130718 4.82144181,7.08652786 C4.83584871,6.92366949 4.84039399,6.75153362 4.77602963,6.63052443 L4.7640577,6.60976049"></path>
                        <path id="Fill-35" fill="#A11F22" sketch:type="MSShapeGroup" d="M5.884387,6.99660433 C5.80679265,7.00455648 5.7291983,7.01214717 5.65156337,7.01937639 C5.47096983,7.66141187 5.4783559,8.24525209 5.60809917,8.90118375 C5.66523978,9.18999128 5.84157213,9.45582593 5.87984173,9.73656083 L5.90155354,9.75595925 C5.91823307,8.93624549 5.87813725,8.11886115 5.86511016,7.29778187 C5.86356802,7.20560925 5.8742413,7.10239199 5.884387,6.99660433"></path>
                        <path id="Fill-36" fill="#BE262B" sketch:type="MSShapeGroup" d="M5.85744001,6.44356864 C5.7719726,6.64249281 5.70387462,6.83342467 5.65156337,7.01937639 C5.7291983,7.01214717 5.80679265,7.00455648 5.884387,6.99660433 C5.9028116,6.80370452 5.91953173,6.60220996 5.85744001,6.44356864"></path>
                        <path d="M6.79027669,6.8837481 C6.67035446,6.90170068 6.55022931,6.91832789 6.43014475,6.9337904 C6.41216656,6.9984518 6.40181795,7.04588355 6.40226436,7.06226979 C6.41675242,7.53755115 6.51216263,8.00307306 6.6130921,8.47228991 C6.68196115,8.7934683 6.68890081,9.36413527 7.09115771,9.58896416 C7.09846262,9.02681161 6.81430172,8.48847534 6.7630862,7.92708588 C6.7316751,7.58120764 6.77209559,7.23123284 6.79027669,6.8837481" id="Fill-37" fill="#A11F22" sketch:type="MSShapeGroup"></path>
                        <path id="Fill-38" fill="#BE262B" sketch:type="MSShapeGroup" d="M6.77931933,6.20452228 C6.67185602,6.20452228 6.49755282,6.69088845 6.43014475,6.9337904 C6.55022931,6.91832789 6.67035446,6.90170068 6.79027669,6.8837481 C6.79539012,6.78663552 6.7987585,6.68980407 6.79831209,6.59325376 C6.7975816,6.46204333 6.82745055,6.33818261 6.79319865,6.20745413 C6.78873454,6.20544601 6.78406752,6.20452228 6.77931933,6.20452228"></path>
                        <path d="M7.70310604,6.71815869 C7.62141282,6.73583013 7.53971961,6.75265816 7.45802639,6.76872311 C7.45206072,6.88740288 7.45055915,7.00793012 7.45380578,7.1383373 C7.46541247,7.61149006 7.51342194,8.08311665 7.65465015,8.53936105 C7.72498018,8.76740293 7.79393039,9.06809851 7.94664353,9.26176141 C8.13941192,8.96206988 7.89323654,8.38774814 7.84291385,8.06685089 C7.78053806,7.66852061 7.76040898,7.27055179 7.71682303,6.87121745 C7.71162843,6.82398651 7.70797597,6.77197626 7.70310604,6.71815869" id="Fill-39" fill="#A11F22" sketch:type="MSShapeGroup"></path>
                        <path id="Fill-40" fill="#BE262B" sketch:type="MSShapeGroup" d="M7.51244795,6.23323837 C7.4851763,6.4244112 7.4667517,6.59453895 7.45802639,6.76872311 C7.53971961,6.75265816 7.62141282,6.73583013 7.70310604,6.71815869 C7.68695407,6.53971733 7.65728803,6.34167674 7.51244795,6.23323837"></path>
                        <path d="M8.62263155,6.47497561 C8.51878012,6.50718582 8.41545626,6.5378297 8.31217298,6.56690725 C8.2691552,7.03058169 8.30876403,7.52232962 8.43396202,7.93720679 C8.53132021,8.25983103 8.53034622,8.82917264 8.82197436,9.06492569 C8.82355709,9.06504617 8.82513982,9.0651265 8.82672255,9.0651265 C8.83163307,9.0651265 8.836503,9.06452406 8.84149469,9.06323887 C8.98710585,8.71724014 8.76909494,8.22003013 8.75363289,7.85736402 C8.73922599,7.51389552 8.69608645,7.17608992 8.66869305,6.83410743 C8.6591155,6.71530717 8.64641308,6.59385619 8.62263155,6.47497561" id="Fill-41" fill="#A11F22" sketch:type="MSShapeGroup"></path>
                        <path id="Fill-42" fill="#BE262B" sketch:type="MSShapeGroup" d="M8.41716074,5.97832787 C8.3662293,6.1629944 8.33116574,6.36223986 8.31217298,6.56690725 C8.41545626,6.5378297 8.51878012,6.50718582 8.62263155,6.47497561 C8.58724333,6.29781944 8.52738367,6.12644665 8.41716074,5.97832787"></path>
                        <path d="M9.48302789,6.18195103 C9.41537633,6.20665088 9.34792769,6.23098927 9.28051963,6.2549662 C9.26944052,6.62855647 9.32678404,7.03395533 9.35352812,7.3658169 C9.39910262,7.92612198 9.51098946,8.49196947 9.80030437,8.99271377 L9.83086324,8.99319571 C9.86316716,8.64743796 9.70704505,8.32168106 9.72717413,7.98134523 C9.74985993,7.60060606 9.68293886,7.21408351 9.60311246,6.84169811 C9.56005408,6.64140843 9.53387817,6.40400872 9.48302789,6.18195103" id="Fill-43" fill="#A11F22" sketch:type="MSShapeGroup"></path>
                        <path id="Fill-44" fill="#BE262B" sketch:type="MSShapeGroup" d="M9.34951042,5.79787839 L9.34098803,5.79787839 C9.3027996,5.93872778 9.2853084,6.09387498 9.28051963,6.2549662 C9.34792769,6.23098927 9.41537633,6.20665088 9.48302789,6.18195103 C9.45141388,6.04379252 9.41022232,5.91157803 9.34951042,5.79787839"></path>
                        <path d="M10.4124556,5.82900422 C10.3435054,5.85575235 10.2745552,5.88250048 10.2057267,5.9090478 C10.1914416,5.99848937 10.1794291,6.0772076 10.182351,6.11411681 C10.1978131,6.31428601 10.2586061,6.51835096 10.3021109,6.71490554 C10.4018229,7.16536657 10.5184174,7.61257444 10.6317652,8.0602241 C10.6730785,8.22352426 10.8014014,8.67117391 10.9749335,8.75005279 C11.0828838,8.48474024 10.9077689,8.08142983 10.8323255,7.8277242 C10.7133772,7.42790791 10.6326174,7.03692734 10.5560782,6.62891793 C10.5101385,6.3839677 10.4975984,6.08588267 10.4124556,5.82900422" id="Fill-45" fill="#A11F22" sketch:type="MSShapeGroup"></path>
                        <path id="Fill-46" fill="#BE262B" sketch:type="MSShapeGroup" d="M10.229143,5.49915076 C10.2668039,5.54059831 10.2323085,5.74325758 10.2057267,5.9090478 C10.2745552,5.88250048 10.3435054,5.85575235 10.4124556,5.82900422 C10.3717916,5.70622788 10.3145293,5.59280938 10.229143,5.49915076"></path>
                        <path d="M11.1288641,5.55204458 C11.0702219,5.57441502 11.0115798,5.59690594 10.9530999,5.61943702 C10.9701041,5.78960494 11.0270418,5.96382926 11.0483884,6.1244787 C11.088606,6.42489314 11.1297975,6.72530759 11.187831,7.02295084 C11.2442411,7.31248129 11.3131101,7.60084703 11.4119293,7.88077868 C11.4631042,8.02560415 11.5215841,8.16818052 11.5886269,8.30746359 C11.627627,8.38887269 11.8093162,8.61052875 11.8010373,8.68928714 C11.8394287,8.31915083 11.7106188,7.90680389 11.6164261,7.5502023 C11.5163489,7.170668 11.4698004,6.77920548 11.3560873,6.40424969 C11.2790205,6.14954001 11.2572682,5.81390317 11.1288641,5.55204458" id="Fill-47" fill="#A11F22" sketch:type="MSShapeGroup"></path>
                        <path id="Fill-48" fill="#BE262B" sketch:type="MSShapeGroup" d="M10.9765162,5.33693499 C10.9466473,5.42762159 10.9434412,5.52288671 10.9530999,5.61943702 C11.0115798,5.59690594 11.0702219,5.57441502 11.1288641,5.55204458 C11.0895799,5.472001 11.040353,5.39878502 10.9765162,5.33693499"></path>
                        <path d="M12.070142,5.20861625 C12.0295592,5.22251242 11.9888546,5.23660941 11.9483124,5.25078673 C11.9346766,5.32986641 11.9128024,5.41155665 11.9153186,5.44440946 C11.9261948,5.58971688 11.9934405,5.74277563 12.0166133,5.89121571 C12.0420587,6.05210612 12.064501,6.21179167 12.089013,6.37035266 C12.1433534,6.7224159 12.2085294,7.06877609 12.342331,7.41091923 C12.4627402,7.71856291 12.6115574,8.03319483 12.785333,8.31903035 C12.8570835,8.00391647 12.7442632,7.5853042 12.6897605,7.27199763 C12.6054294,6.7873986 12.5000358,6.32127426 12.3017482,5.86555196 C12.2062974,5.64570321 12.2054046,5.39826291 12.070142,5.20861625" id="Fill-49" fill="#A11F22" sketch:type="MSShapeGroup"></path>
                        <path id="Fill-50" fill="#BE262B" sketch:type="MSShapeGroup" d="M11.9333779,5.07391169 C11.9671834,5.09740667 11.9617453,5.17279142 11.9483124,5.25078673 C11.9888546,5.23660941 12.0295592,5.22251242 12.070142,5.20861625 C12.0349973,5.15929687 11.9907214,5.1139134 11.9333779,5.07391169"></path>
                        <path d="M12.7762831,4.98378736 C12.7667461,4.98655856 12.7574121,4.9892896 12.7478751,4.99210097 C12.7815588,5.12391383 12.8070854,5.40215866 12.833099,5.48589718 C12.9093541,5.7321326 12.9358141,5.99567801 12.9919808,6.24689357 C13.1054503,6.75486709 13.247409,7.26067185 13.4639589,7.74025058 C13.5490205,7.92901367 13.6350561,8.17042962 13.7714144,8.33312733 C13.807736,8.20798142 13.7353362,8.05203098 13.7040469,7.92612198 C13.6334734,7.64161183 13.5903338,7.35316576 13.524752,7.0678122 C13.4281243,6.64654921 13.1860072,6.27303926 13.0976584,5.85201725 C13.0347956,5.55059874 12.987679,5.22596639 12.7762831,4.98378736" id="Fill-51" fill="#A11F22" sketch:type="MSShapeGroup"></path>
                        <path id="Fill-52" fill="#BE262B" sketch:type="MSShapeGroup" d="M12.7207252,4.92583307 C12.7381101,4.93965126 12.7543264,4.97571186 12.769593,5.02583307 C12.7867588,5.02159065 12.8035594,5.01746944 12.8207252,5.01328762 C12.7894615,4.98328762 12.7561525,4.9540755 12.7207252,4.92583307"></path>
                        <path d="M13.6681311,4.76269357 C13.5954879,4.77719218 13.5223576,4.79273501 13.449755,4.8090811 C13.4241878,5.04812746 13.5578676,5.55296832 13.5726803,5.63132508 C13.6740562,6.16114693 13.8898756,6.66329691 14.0838615,7.16813777 C14.1188439,7.2585834 14.1586962,7.35493291 14.2040272,7.45228646 C14.3466353,7.75764088 14.5439083,8.07444158 14.8157726,8.26187931 C14.8411369,8.03512263 14.6649263,7.86933241 14.5933788,7.67080986 C14.5085607,7.43598055 14.4874982,7.17404164 14.4066978,6.934433 C14.2498452,6.46830866 14.0351215,6.01929348 13.899372,5.54678332 C13.8577746,5.40107428 13.8261606,4.94856497 13.6681311,4.76269357" id="Fill-53" fill="#A11F22" sketch:type="MSShapeGroup"></path>
                        <path id="Fill-54" fill="#BE262B" sketch:type="MSShapeGroup" d="M13.5313264,4.68389502 C13.4820995,4.68389502 13.4578715,4.73305375 13.449755,4.8090811 C13.5223576,4.79273501 13.5954879,4.77719218 13.6681311,4.76269357 C13.6349749,4.72369592 13.5962995,4.69642568 13.550725,4.68618428 C13.5438665,4.68465811 13.5374138,4.68389502 13.5313264,4.68389502"></path>
                        <path d="M14.6918327,4.62762755 C14.6093684,4.63236671 14.5267418,4.63875253 14.4442775,4.64662435 C14.4735783,5.55786813 14.960004,6.49124136 15.2703408,7.33469108 C15.3701339,7.60566652 15.4861602,7.88174258 15.6889526,8.10147084 C15.6415113,7.72446678 15.5299085,7.35762378 15.4217959,6.99278891 C15.2677841,6.47192327 15.2502523,5.92149813 15.0775724,5.40906658 C14.9975025,5.17214883 14.8933264,4.83860043 14.6918327,4.62762755" id="Fill-55" fill="#A11F22" sketch:type="MSShapeGroup"></path>
                        <path id="Fill-56" fill="#BE262B" sketch:type="MSShapeGroup" d="M14.4448457,4.46175701 C14.4424107,4.52328574 14.442289,4.58485464 14.4442775,4.64662435 C14.5267418,4.63875253 14.6093684,4.63236671 14.6918327,4.62762755 C14.622152,4.55465255 14.540824,4.4963368 14.4448457,4.46175701"></path>
                        <path d="M15.4072266,4.62947502 C15.4474036,4.73807404 15.4820614,4.85044833 15.5211426,4.93896617 C15.6322584,5.18969978 15.7298601,5.44513238 15.8209279,5.7023723 C15.9940542,6.19179081 16.1404364,6.68863936 16.297776,7.18259622 C16.3724484,7.41670261 16.5045455,7.66755671 16.6197195,7.8862006 C16.6617633,7.96592288 16.7055116,8.0298212 16.7842423,8.08311665 C16.8087137,7.81455095 16.6960152,7.52851462 16.6247112,7.27211812 C16.4750824,6.73386218 16.2702203,6.22227404 16.0434435,5.7079147 C15.9388616,5.47023386 15.8027468,4.97210011 15.5902957,4.64473672 C15.5292186,4.63855172 15.4683444,4.63349126 15.4072266,4.62947502" id="Fill-57" fill="#A11F22" sketch:type="MSShapeGroup"></path>
                        <path id="Fill-58" fill="#BE262B" sketch:type="MSShapeGroup" d="M15.2666883,4.35018598 C15.3245594,4.42320114 15.3684701,4.52457094 15.4072266,4.62947502 C15.4683444,4.63349126 15.5292186,4.63855172 15.5902957,4.64473672 C15.498051,4.50256197 15.3913993,4.39263759 15.2666883,4.35018598"></path>
                        <path d="M16.0955924,4.74361645 C16.1467268,4.8339416 16.2043544,4.9208931 16.2669331,5.00760364 C16.4782478,5.30026675 16.7306324,5.56887261 16.9186526,5.87591385 C17.1794378,6.30199632 17.4371792,6.71888162 17.7205285,7.13259408 C17.9406091,7.45373231 18.1253421,7.82953151 18.3965977,8.11737514 C18.5689123,7.65791775 18.045881,7.08648769 17.832253,6.70659193 C17.6377801,6.36095467 17.3973269,6.02604075 17.2334129,5.66895721 C17.202083,5.60072136 17.1676282,5.53477477 17.1304949,5.47071581 C16.8289645,5.15865427 16.4922895,4.88113237 16.0955924,4.74361645" id="Fill-59" fill="#A11F22" sketch:type="MSShapeGroup"></path>
                        <path d="M15.8117968,4.16893325 C15.9132944,4.21584288 15.9660521,4.47320328 16.0037129,4.56039576 C16.0312281,4.62353099 16.0619898,4.68429664 16.0955924,4.74361645 C16.4922895,4.88113237 16.8289645,5.15865427 17.1304949,5.47071581 C16.9296099,5.12435562 16.6499537,4.83313835 16.3601518,4.53750322 C16.2042732,4.37866109 16.0175922,4.26395739 15.8117968,4.16893325" id="Fill-60" fill="#BE262B" sketch:type="MSShapeGroup"></path>
                        <path d="M10.3089694,19.5642902 C10.1397391,19.7067461 10.1396985,20.1239527 10.471179,20.1992571 C10.8027,20.2745214 10.8423494,20.4111136 11.2015885,20.4111136 C11.581322,20.4111136 11.61391,20.2926346 11.9319981,20.2173703 C12.2500457,20.1420659 12.2768303,19.6934524 12.0942076,19.5642902 C12.1782952,19.7155818 12.2019956,20.0078031 11.883948,20.0830674 C11.5658599,20.1583718 11.5992596,20.2276921 11.2194856,20.2276921 C10.860287,20.2276921 10.8507095,20.1583718 10.5505589,20.0786495 C10.250449,19.9989273 10.2383147,19.7067461 10.3089694,19.5642902" id="Fill-61" fill="#000000" sketch:type="MSShapeGroup"></path>
                        <path d="M10.6400441,27.4904925 C10.596661,27.5014568 10.5531562,27.5135859 10.5106255,27.5277632 C10.5019407,27.5172005 10.4934589,27.5066378 10.4848148,27.4960349 C9.69081193,27.483183 8.91677582,27.2718085 8.21651928,26.8968928 C8.11331717,26.8387377 8.0437988,26.7370467 7.99903595,26.6243109 C7.79827275,26.7176482 7.65396024,26.8659678 7.64771049,27.0907164 C7.416916,27.5155137 7.9188443,27.890349 8.27337581,28.0148121 C7.63180202,28.5387301 7.45319704,29.4198521 8.36691921,29.7941653 C9.1433497,30.1122512 10.0248085,29.3188839 10.658144,28.8871386 C10.5501125,28.7489801 10.5924404,28.6232317 10.5624091,28.4447903 C10.4967055,28.135982 10.4725182,27.7452022 10.6400441,27.4904925" id="Fill-62" fill="#594F4F" sketch:type="MSShapeGroup"></path>
                        <path d="M14.3103948,28.3297653 C14.2444883,28.291089 14.1735495,28.2592402 14.1009469,28.2315282 C14.1050051,28.192651 14.1122289,28.1539345 14.122334,28.1160614 C14.6274684,27.6127467 14.9152817,26.7782131 14.1775672,26.4414918 C14.1376743,26.6919443 13.8731961,26.8858482 13.6708096,26.993644 C13.1427053,27.2459841 12.5125759,27.6323861 11.9072832,27.4807732 C12.070142,27.9207519 11.9099211,28.4091663 11.7607386,28.8517154 C12.3182654,29.3543071 13.3130314,29.7258491 14.0541955,29.5748387 C14.823808,29.4179645 15.0640583,28.7703464 14.3103948,28.3297653" id="Fill-63" fill="#594F4F" sketch:type="MSShapeGroup"></path>
                        <path d="M11.9026161,27.4798093 C11.8851249,27.5004528 11.8675526,27.5207749 11.8502237,27.5407356 C11.4650522,27.4173569 11.0332916,27.3915325 10.6400441,27.4904925 C10.4725182,27.7452022 10.4967055,28.135982 10.5624091,28.4447903 C10.5924404,28.6232317 10.65717,28.7901866 10.7656073,28.928305 C10.7917832,28.9103524 10.817391,28.892922 10.84239,28.8763751 C11.139091,28.8831223 11.4454913,28.8739653 11.7391485,28.8324776 C11.7464129,28.8388634 11.7534743,28.8453296 11.7607386,28.8517154 C11.9099211,28.4091663 12.070142,27.9207519 11.9072832,27.4807732 L11.9026161,27.4798093" id="Fill-64" fill="#7A6453" sketch:type="MSShapeGroup"></path>
                        <path d="M11.9026161,27.4798093 C12.5095728,27.6344746 13.1414879,27.2465865 13.6708096,26.993644 C13.8731961,26.8858482 14.1376743,26.6919443 14.1775672,26.4414918 C14.111052,26.4110889 14.0366637,26.3847424 13.9528196,26.3632154 C13.1293942,26.149873 12.3898535,26.9179379 11.9026161,27.4798093" id="Fill-65" fill="#352A22" sketch:type="MSShapeGroup"></path>
                        <path d="M9.1131155,26.521174 C8.8549276,26.4659106 8.34374642,26.4637418 7.99903595,26.6243109 C8.0437988,26.7370467 8.11331717,26.8387377 8.21651928,26.8968928 C8.91677582,27.2718085 9.69081193,27.483183 10.4848148,27.4960349 C10.129431,27.0610766 9.68216779,26.6432675 9.1131155,26.521174" id="Fill-66" fill="#352A22" sketch:type="MSShapeGroup"></path>
                        <path d="M14.195099,28.1524485 C14.3252887,27.8421541 14.6941865,27.6887741 14.7369202,27.302854 C14.7891097,26.8333962 14.5144046,26.4846664 14.1940844,26.3068275 C13.0028164,26.2172654 12.419276,26.8851253 11.8006721,27.5041076 C11.5434582,27.3464301 10.9439688,27.4589651 10.6376091,27.5135055 C9.95768454,26.6006954 8.97586441,26.4100849 8.02789034,26.5204912 C7.40380775,26.7899003 7.45360287,27.890349 8.16351812,28.0183866 C7.97001924,28.3010493 7.70014349,28.3543045 7.66666267,28.7112676 C7.57072488,29.7425968 8.32459133,30.1181149 9.1350708,29.8289861 C9.61662653,29.6572518 10.0909585,29.256552 10.4676888,29.0466233 C10.710577,28.9112761 11.2288196,29.0240922 11.5295383,28.9348113 C11.9332968,28.9861789 12.1866553,29.2982405 12.6137895,29.5162016 C13.5950414,30.0167853 15.3708644,29.5769271 14.6466235,28.4207331 C14.5196398,28.3078367 14.2989099,28.2880768 14.195099,28.1524485 L14.195099,28.1524485 Z M14.1045993,26.40888 C14.1321956,26.9177371 13.5764951,27.0315572 13.0427093,27.213573 C12.6494618,27.3477153 12.2594203,27.5328638 12.0715624,27.4369963 C12.4458983,26.9069736 13.2344225,26.2401178 14.1045993,26.40888 L14.1045993,26.40888 Z M8.09582598,26.6769638 C8.14298321,26.3830556 9.30239377,26.6935508 9.51910602,26.7665258 C9.97525691,26.9196649 10.1479774,27.2567877 10.4225202,27.459447 L10.4225202,27.5041076 C9.97201028,27.4478803 9.43603299,27.2113641 8.9317103,27.0793504 C8.69770976,27.0181832 8.04619319,26.9871778 8.09582598,26.6769638 L8.09582598,26.6769638 Z M9.04477403,29.7618748 C8.22220087,29.9765024 7.72311337,29.5108199 7.80233103,28.7112676 C7.8401948,28.3286006 8.22423001,28.2552642 8.34435516,27.995976 C8.10345555,27.7964494 7.68983545,27.7600623 7.66666267,27.3253047 C7.65598938,27.1234086 7.73094585,26.8411475 7.93779648,26.7440751 C8.55035355,27.2927732 9.69503254,27.3151437 10.5130198,27.6607006 C10.5067701,27.7364468 10.5303487,27.841873 10.4902529,27.8841238 C10.165915,27.8207074 9.59767436,27.6641947 9.45117038,27.995976 C9.6299377,28.2432958 10.1405101,28.0421225 10.3999561,28.0183866 C10.4912674,28.0697542 10.4662684,28.2357453 10.4676888,28.3759521 C10.0998056,28.5035077 9.59527997,28.496158 9.49650139,28.8902311 C9.82225968,28.9861789 10.2074718,28.7612697 10.4452871,28.6219063 C10.5285631,28.6509437 10.5178898,28.7735193 10.5807526,28.8231198 C10.1493978,29.0867053 9.59649746,29.6181337 9.04477403,29.7618748 L9.04477403,29.7618748 Z M10.7613461,28.84545 C10.5166723,28.57086 10.545689,27.9467771 10.6936134,27.6158392 C11.0135277,27.4990471 11.8564735,27.3416508 11.8455973,27.8617935 C11.8554589,27.9608339 11.8188126,28.6292962 11.6652067,28.8231198 C11.3628241,28.8309916 11.0653114,28.9071796 10.7613461,28.84545 L10.7613461,28.84545 Z M14.5786878,29.3149079 C13.8518089,30.0510036 12.3594164,29.3355513 11.8232362,28.8677803 C11.7889843,28.7740012 11.9121125,28.6633941 11.936097,28.554795 C12.000786,28.589415 12.8822854,28.9483862 12.8903208,28.6466464 C12.8963676,28.4024994 12.302154,28.2418098 12.0038297,28.3759521 C11.9842688,28.2832975 11.9310647,28.1303191 11.9812656,28.0406365 C12.3114069,28.0472231 13.0431151,28.2671522 13.2009417,27.8841238 C13.0695345,27.4320161 12.1945284,27.7022285 11.958661,27.7947626 C11.9175506,27.56407 12.2255742,27.592786 12.3652603,27.5488083 C12.9941316,27.3509283 14.074568,27.0989095 14.2400648,26.4757905 C14.9590706,26.9270548 14.4603483,27.8209886 14.0368666,28.1747788 C14.0781799,28.3666746 14.2688786,28.3118128 14.4206583,28.3983225 C14.7405321,28.5807399 14.8253908,29.0653791 14.5786878,29.3149079 L14.5786878,29.3149079 Z" id="Fill-67" fill="#0D0D0D" sketch:type="MSShapeGroup"></path>
                    </g>
                </g>
            </g>
        </g>
    </g>
</svg>