<?xml version="1.0" encoding="UTF-8" standalone="no"?>
<svg width="24px" height="34px" viewBox="0 0 24 34" version="1.1" xmlns="http://www.w3.org/2000/svg" xmlns:xlink="http://www.w3.org/1999/xlink">
    <!-- Generator: Sketch 3.6.1 (26313) - http://www.bohemiancoding.com/sketch -->
    <title>Shape</title>
    <desc>Created with Sketch.</desc>
    <defs></defs>
    <g id="Page-1" stroke="none" stroke-width="1" fill="none" fill-rule="evenodd">
        <g id="Contact-Us" transform="translate(-708.000000, -1109.000000)" stroke="#FFBF33" fill="#FFBF33">
            <g id="Map-Mask" transform="translate(0.000000, 945.000000)">
                <path d="M720,165 C713.936,165 709,169.934 709,176 C709,184.746 718.826,196.172 719.244,196.656 L720,197.526 L720.756,196.654 C721.174,196.172 731,184.746 731,176 C731,169.934 726.064,165 720,165 L720,165 Z M720,194.43 C717.708,191.582 711,182.672 711,176 C711,171.038 715.038,167 720,167 C724.962,167 729,171.038 729,176 C729,182.666 722.292,191.582 720,194.43 L720,194.43 Z M720,170.278 C716.692,170.278 714,172.97 714,176.278 C714,179.586 716.692,182.278 720,182.278 C723.308,182.278 726,179.586 726,176.278 C726,172.97 723.308,170.278 720,170.278 L720,170.278 Z M720,180.278 C717.794,180.278 716,178.484 716,176.278 C716,174.072 717.794,172.278 720,172.278 C722.206,172.278 724,174.072 724,176.278 C724,178.484 722.206,180.278 720,180.278 L720,180.278 Z" id="Shape"></path>
            </g>
        </g>
    </g>
</svg>