<?xml version="1.0" encoding="UTF-8" standalone="no"?>
<svg width="270px" height="50px" viewBox="0 0 270 50" version="1.1" xmlns="http://www.w3.org/2000/svg" xmlns:xlink="http://www.w3.org/1999/xlink">
    <!-- Generator: Sketch 3.6.1 (26313) - http://www.bohemiancoding.com/sketch -->
    <title>paypall</title>
    <desc>Created with Sketch.</desc>
    <defs></defs>
    <g id="Page-1" stroke="none" stroke-width="1" fill="none" fill-rule="evenodd">
        <g id="Contact-Us" transform="translate(-766.000000, -797.000000)">
            <g id="Contact" transform="translate(0.000000, -158.000000)">
                <g id="paypall" transform="translate(766.000000, 955.000000)">
                    <rect id="Rectangle-498" fill="#FFBF33" x="0" y="0" width="270" height="50"></rect>
                    <g transform="translate(157.000000, 14.000000)">
                        <path d="M15.1070166,1.58296945 C14.137532,0.475006975 12.3850466,0 10.1431859,0 L3.63651941,0 C3.17783852,0 2.78807559,0.334479239 2.71626191,0.788000568 L0.00703311125,18.0165848 C-0.0468271451,18.3562903 0.215524426,18.6640577 0.558955948,18.6640577 L4.57588861,18.6640577 L5.58475492,12.2479794 L5.55348122,12.4488992 C5.6252949,11.9953779 6.01216211,11.6608986 6.47026386,11.6608986 L8.37911768,11.6608986 C12.1290656,11.6608986 15.0653183,10.1336757 15.9230284,5.71576241 C15.9485107,5.58510646 15.9705181,5.45793467 15.9896298,5.33366634 C15.8813302,5.27617772 15.8813302,5.27617772 15.9896298,5.33366634 C16.2450317,3.70075728 15.9877766,2.58931064 15.1070166,1.58296945" id="path14499" fill="#003087"></path>
                        <path d="M56.6088344,9.72968981 L54.4468953,9.72968981 C54.2401414,9.72968981 54.0467078,9.8324725 53.9308793,10.0043577 L50.9482952,14.4083343 L49.6846062,10.1762428 C49.6052636,9.91144676 49.3620238,9.72968981 49.0863519,9.72968981 L46.9614779,9.72968981 C46.7049178,9.72968981 46.5242253,9.98287202 46.6070427,10.2261824 L48.9873185,17.2328257 L46.7483535,20.4005067 C46.5728733,20.6490433 46.7502067,20.9928136 47.0541407,20.9928136 L49.2137633,20.9928136 C49.4182006,20.9928136 49.6098968,20.8923537 49.7268836,20.7239527 L56.9163591,10.3190933 C57.0883644,10.069976 56.9111236,9.72968981 56.6088344,9.72968981 M42.15535,13.92746 C41.9474379,15.1596908 40.9721618,15.9871785 39.7275845,15.9871785 C39.103848,15.9871785 38.604048,15.785678 38.283203,15.4047433 C37.9652538,15.0272928 37.8453713,14.4889903 37.9461421,13.8902957 C38.1395757,12.6685173 39.1310677,11.8148984 40.3565333,11.8148984 C40.9675287,11.8148984 41.4632747,12.018141 41.7904902,12.4025599 C42.1200223,12.7898822 42.2497503,13.3310882 42.15535,13.92746 M45.1529918,9.72962942 L43.0020564,9.72962942 C42.8178891,9.72962942 42.6609415,9.86376953 42.6319844,10.0466879 L42.5375841,10.6494473 L42.3875862,10.4311067 C41.9213765,9.75343784 40.8829739,9.52638683 39.8463087,9.52638683 C37.4700869,9.52638683 35.4401923,11.3323424 35.0452171,13.8647452 C34.8396215,15.1283334 35.1315093,16.3355944 35.8461712,17.1781801 C36.5023397,17.952244 37.4388132,18.2745287 38.5548209,18.2745287 C40.4706244,18.2745287 41.5327718,17.0411365 41.5327718,17.0411365 L41.4366341,17.6404118 C41.4007273,17.8680435 41.5762075,18.0741896 41.8067062,18.0741896 L43.7433589,18.0741896 C44.0508836,18.0741896 44.3120769,17.8506228 44.3601457,17.5463396 L45.5230639,10.1634072 C45.5589708,9.93577548 45.3829114,9.72962942 45.1529918,9.72962942 M32.245466,9.78142725 C31.9999095,11.3980769 30.7686525,11.3980769 29.5773563,11.3980769 L28.8997595,11.3980769 L29.3752355,8.37963405 C29.4035904,8.19729641 29.5605611,8.0631563 29.7447285,8.0631563 L30.055728,8.0631563 C30.8665276,8.0631563 31.632154,8.0631563 32.0271292,8.52596872 C32.2634194,8.80295934 32.3346539,9.21409007 32.245466,9.78142725 M31.7271334,5.5632724 L27.2353038,5.5632724 C26.9277792,5.5632724 26.6665859,5.78741995 26.618517,6.09170314 L24.802326,17.640528 C24.7664192,17.8681597 24.9418994,18.0743057 25.171819,18.0743057 L27.3169629,18.0743057 C27.6239085,18.0743057 27.8851018,17.8501582 27.9331706,17.5464557 L28.4237043,14.4304564 C28.471194,14.1261732 28.7329665,13.9020257 29.039912,13.9020257 L30.4611278,13.9020257 C33.419967,13.9020257 35.1278584,12.4665523 35.5737981,9.62057525 C35.7747606,8.37673058 35.5819061,7.39884336 35.0010262,6.71420617 C34.362232,5.96162788 33.2300083,5.5632724 31.7271334,5.5632724" id="path14519" fill="#002F86"></path>
                        <path d="M79.7261799,5.88062351 L77.8827692,17.6408207 C77.8468624,17.8684524 78.0223426,18.0745984 78.2522622,18.0745984 L80.1066766,18.0745984 C80.4136221,18.0745984 80.6753946,17.8504509 80.7228842,17.5461677 L82.5408127,5.99734283 C82.5767195,5.76971113 82.4012393,5.56356507 82.1707406,5.56356507 L80.096252,5.56356507 C79.9115055,5.56356507 79.7545579,5.69770518 79.7261799,5.88062351 M74.1933996,13.92746 C73.9854874,15.1596908 73.0102114,15.9871785 71.7656341,15.9871785 C71.1418975,15.9871785 70.6420975,15.785678 70.3212526,15.4047433 C70.0027242,15.0272928 69.8834208,14.4889903 69.9841916,13.8902957 C70.1776252,12.6685173 71.1691172,11.8148984 72.3945829,11.8148984 C73.0055782,11.8148984 73.5013242,12.018141 73.8285398,12.4025599 C74.1580719,12.7898822 74.2877998,13.3310882 74.1933996,13.92746 M77.1910414,9.72962942 L75.040106,9.72962942 C74.8559386,9.72962942 74.698991,9.86376953 74.6700339,10.0466879 L74.5756337,10.6494473 L74.4250566,10.4311067 C73.959426,9.75343784 72.9210234,9.52638683 71.8843583,9.52638683 C69.5081364,9.52638683 67.4782418,11.3323424 67.0832666,13.8647452 C66.877671,15.1283334 67.1695588,16.3355944 67.8842207,17.1781801 C68.5403892,17.952244 69.4768627,18.2745287 70.5928704,18.2745287 C72.5086739,18.2745287 73.5708214,17.0411365 73.5708214,17.0411365 L73.4746837,17.6404118 C73.4387769,17.8680435 73.614257,18.0741896 73.8447558,18.0741896 L75.7814084,18.0741896 C76.0889331,18.0741896 76.3501264,17.8506228 76.3981952,17.5463396 L77.5611135,10.1634072 C77.5970203,9.93577548 77.420961,9.72962942 77.1910414,9.72962942 M64.2834599,9.78142725 C64.0379035,11.3980769 62.8066464,11.3980769 61.6153502,11.3980769 L60.9377534,11.3980769 L61.4132295,8.37963405 C61.4416306,8.19729641 61.5985551,8.0631563 61.7827224,8.0631563 L62.093722,8.0631563 C62.9045215,8.0631563 63.670148,8.0631563 64.0651232,8.52596872 C64.3014133,8.80295934 64.3726479,9.21409007 64.2834599,9.78142725 M63.7651273,5.5632724 L59.2732978,5.5632724 C58.9657731,5.5632724 58.7045798,5.78741995 58.656511,6.09170314 L56.84032,17.640528 C56.8044131,17.8681597 56.9804725,18.0743057 57.2098129,18.0743057 L59.5148002,18.0743057 C59.7296621,18.0743057 59.9126711,17.9175186 59.9462614,17.7049849 L60.4616983,14.4304564 C60.509188,14.1261732 60.7709604,13.9020257 61.0779059,13.9020257 L62.4991217,13.9020257 C65.457961,13.9020257 67.1658523,12.4665523 67.6117921,9.62057525 C67.8127546,8.37673058 67.6199001,7.39884336 67.0390201,6.71420617 C66.4002259,5.96162788 65.2680022,5.5632724 63.7651273,5.5632724" id="path14523" fill="#009CDE"></path>
                        <path d="M15.1070166,1.58296945 C14.137532,0.475006975 12.3850466,0 10.1431859,0 L3.63651941,0 C3.17783852,0 2.78807559,0.334479239 2.71626191,0.788000568 L0.00703311125,18.0165848 C-0.0468271451,18.3562903 0.215524426,18.6640577 0.558955948,18.6640577 L4.57588861,18.6640577 L5.58475492,12.2479794 L5.55348122,12.4488992 C5.6252949,11.9953779 6.01216211,11.6608986 6.47026386,11.6608986 L8.37911768,11.6608986 C12.1290656,11.6608986 15.0653183,10.1336757 15.9230284,5.71576241 C15.9485107,5.58510646 15.9705181,5.45793467 15.9896298,5.33366634 C15.8813302,5.27617772 15.8813302,5.27617772 15.9896298,5.33366634 C16.2450317,3.70075728 15.9877766,2.58931064 15.1070166,1.58296945" id="path14527" fill="#003087"></path>
                        <path d="M6.66902558,5.35532852 C6.71188213,5.08240275 6.88678318,4.85883589 7.12191505,4.74560074 C7.22905642,4.69449974 7.34835978,4.66604578 7.47345457,4.66604578 L12.5745421,4.66604578 C13.1785877,4.66604578 13.7420934,4.70553291 14.2569512,4.78857203 C14.4046325,4.81235722 14.5476807,4.83967302 14.6866749,4.87103045 C14.8256691,4.90178396 14.9606093,4.93664877 15.0914956,4.97497452 C15.1569387,4.99411416 15.2212235,5.01390419 15.28435,5.03478591 C15.5374353,5.11956711 15.7731463,5.21828494 15.9897456,5.33384287 C16.2451475,3.70035311 15.9878924,2.58948717 15.1071324,1.58314599 C14.1370687,0.475183506 12.3851625,0.000176530709 10.1433017,0.000176530709 L3.6360561,0.000176530709 C3.17795435,0.000176530709 2.78819142,0.33465577 2.71637774,0.788177099 L0.00714893975,18.0161807 C-0.0467113166,18.3564669 0.215640255,18.6636535 0.558492634,18.6636535 L4.57600444,18.6636535 L5.58487075,12.2475752 L6.66902558,5.35532852 L6.66902558,5.35532852 Z" id="path14531" fill="#002F86"></path>
                        <path d="M15.9897456,5.33366634 L15.9897456,5.33366634 C15.9700548,5.45851536 15.9486034,5.58510646 15.9231442,5.71576241 C15.0654341,10.133095 12.1291815,11.6608986 8.37923351,11.6608986 L6.46980055,11.6608986 C6.0116988,11.6608986 5.62483158,11.9953779 5.55359705,12.4488992 L4.57600444,18.663477 L4.29859516,20.4264613 C4.25168462,20.7237762 4.48102506,20.9932178 4.7810209,20.9932178 L8.16726734,20.9932178 C8.56803398,20.9932178 8.90914893,20.7005485 8.97169633,20.3039351 L9.00473062,20.1308885 L9.6429457,16.0753277 L9.68408798,15.8511802 C9.74663538,15.4545668 10.0877503,15.1618975 10.488517,15.1618975 L10.9952667,15.1618975 C14.27553,15.1618975 16.8440272,13.8257226 17.594596,9.96120984 C17.9079121,8.34630226 17.7457522,6.99793283 16.9169992,6.05082235 C16.6656513,5.76395994 16.3534935,5.52703715 15.989792,5.33366634" id="path14535" fill="#009CDE"></path>
                        <path d="M15.0916716,4.97474224 C14.9607854,4.9364165 14.8258452,4.90157491 14.686851,4.87079817 C14.5478568,4.83999821 14.4042294,4.81272886 14.2571272,4.78892044 C13.7416904,4.70530063 13.1787638,4.6658135 12.574139,4.6658135 L7.47363063,4.6658135 C7.3479567,4.6658135 7.22865334,4.69429069 7.12209111,4.74594915 C6.8863801,4.85918431 6.71205819,5.08217047 6.66920164,5.35567693 L5.58504681,12.2479236 L5.55377311,12.4488434 C5.62500764,11.9953221 6.01187486,11.6608429 6.46997661,11.6608429 L8.37940957,11.6608429 C12.1293575,11.6608429 15.0656102,10.13362 15.9233203,5.71570667 C15.9488026,5.58505071 15.9702309,5.45845961 15.9899217,5.33361059 C15.7727432,5.21863335 15.5376114,5.11933483 15.2845261,5.03513433 C15.2213995,5.01422937 15.1571147,4.99388189 15.0916716,4.97474224" id="path14539" fill="#012069"></path>
                    </g>
                    <text id="Check-out-with" font-family="Montserrat-Regular, Montserrat" font-size="14" font-weight="normal" letter-spacing="0.5" fill="#FFFFFF">
                        <tspan x="29" y="30">Check out with</tspan>
                    </text>
                </g>
            </g>
        </g>
    </g>
</svg>
