<?xml version="1.0" encoding="UTF-8" standalone="no"?>
<svg width="23px" height="23px" viewBox="0 0 23 23" version="1.1" xmlns="http://www.w3.org/2000/svg" xmlns:xlink="http://www.w3.org/1999/xlink" xmlns:sketch="http://www.bohemiancoding.com/sketch/ns">
    <!-- Generator: Sketch 3.4.3 (16044) - http://www.bohemiancoding.com/sketch -->
    <title>Shape</title>
    <desc>Created with Sketch.</desc>
    <defs></defs>
    <g id="Page-1" stroke="none" stroke-width="1" fill="none" fill-rule="evenodd" sketch:type="MSPage">
        <g id="HoboJet_Homepage" sketch:type="MSArtboardGroup" transform="translate(-708.000000, -682.000000)" fill="#FFFFFF">
            <g id="Header" sketch:type="MSLayerGroup" transform="translate(0.000000, -1.000000)">
                <g id="Scroll-Down" transform="translate(705.000000, 677.098535)" sketch:type="MSShapeGroup">
                    <path d="M24.5489032,5.42336117 C24.2618416,5.13668186 23.8995965,4.99334221 23.4621691,4.99334221 C23.0247417,4.99334221 22.6624973,5.13668186 22.3754357,5.42336117 L17.6594219,10.1330953 L7.1406603,7.55298016 C7.08598188,7.53932893 7.02788592,7.53932893 6.96637244,7.55298016 C6.90485965,7.56663139 6.84676369,7.60075981 6.79208527,7.65536542 L5.1107236,9.33448826 C5.06971461,9.37544265 5.03895821,9.4232223 5.01845372,9.47782792 C4.99794922,9.53243353 4.99453239,9.59386511 5.00820182,9.66212195 C5.00820182,9.71672757 5.02528878,9.7679202 5.05946271,9.81570055 C5.09363664,9.8634802 5.13806316,9.90102161 5.19274158,9.92832407 L13.5585402,14.2285164 L10.5238874,17.2591284 L8.00184563,17.0134028 C7.94716721,16.9997516 7.89590562,17.0031646 7.84806226,17.0236417 C7.80021891,17.0441189 7.75579238,17.0748344 7.71478339,17.1157888 L6.29997947,18.5287088 C6.25897048,18.5696632 6.23163161,18.6174428 6.21796218,18.6720484 C6.20429205,18.7266541 6.19745769,18.7812597 6.19745769,18.8358653 C6.21112712,18.9041221 6.23504915,18.9621407 6.26922307,19.0099211 C6.303397,19.0577007 6.34782282,19.0952421 6.40250125,19.1225446 L9.39614506,20.5354653 L10.8314535,23.5251229 C10.858793,23.5797278 10.8963845,23.6275082 10.9442279,23.6684626 C10.9920719,23.7094163 11.0433328,23.7367194 11.0980112,23.7503707 C11.1663591,23.7503707 11.2278726,23.7435454 11.282551,23.7298935 C11.3372294,23.7162422 11.3850728,23.6821138 11.4260818,23.6275082 L12.8203812,22.2350647 C12.8613902,22.194111 12.8921466,22.1497436 12.9126511,22.101964 C12.9331556,22.0541836 12.9434075,22.002991 12.9434075,21.9483854 L12.6973549,19.4092246 L15.7115032,16.3990898 L20.037933,24.7537489 C20.0652725,24.7947033 20.102864,24.8356577 20.1507074,24.8766114 C20.1985507,24.9175658 20.2498123,24.938043 20.3044907,24.938043 L20.3352471,24.938043 L20.3660035,24.938043 C20.4070125,24.938043 20.451439,24.931217 20.4992824,24.9175658 C20.5471257,24.9039145 20.5915523,24.8766114 20.6325613,24.8356577 L22.3139222,23.1565349 C22.3549312,23.1019292 22.3856876,23.0439106 22.4061921,22.9824791 C22.4266966,22.9210482 22.4301141,22.8630296 22.4164447,22.808424 L19.8328887,12.3036687 L24.5489032,7.59393454 C24.8496342,7.29360331 25,6.9318412 25,6.50864751 C25,6.08545451 24.8496342,5.7236924 24.5489032,5.42336117 L24.5489032,5.42336117 Z M24.0157884,7.06152962 L19.1562438,11.9146034 C19.1152349,11.969209 19.0844785,12.0272276 19.063974,12.0886592 C19.0434695,12.1500901 19.0400519,12.2081087 19.0537214,12.2627143 L21.6372774,22.7674696 L20.4480215,23.9551419 L16.1420955,15.6004828 C16.114756,15.5458772 16.0771652,15.5015098 16.0293212,15.4673814 C15.9814778,15.4332529 15.9302169,15.4093628 15.8755385,15.3957115 L15.8447814,15.3957115 L15.814025,15.3957115 C15.773016,15.3957115 15.7285902,15.4059505 15.6807461,15.426427 C15.6329028,15.4469042 15.5884762,15.4776203 15.547468,15.518574 L12.0412138,19.0201593 C12.0002048,19.0611137 11.972866,19.1054804 11.9591959,19.1532607 C11.9455264,19.2010404 11.9386921,19.252233 11.9386921,19.3068386 L12.1847446,21.8460001 L11.282551,22.7469924 L10.0112771,20.1054457 C9.99760771,20.064492 9.97710321,20.0303636 9.94976435,20.0030604 C9.92242479,19.9757572 9.88825086,19.9484548 9.84724187,19.9211523 L7.20217379,18.6720484 L8.10436741,17.7710561 L10.6264099,18.0167811 C10.6810883,18.0167811 10.7357668,18.0065428 10.7904452,17.9860656 C10.8451236,17.9655884 10.892967,17.934873 10.933976,17.8939186 L14.4402294,14.3923333 C14.4812384,14.3513796 14.5119948,14.3035992 14.5324993,14.2489936 C14.5530037,14.194388 14.5564213,14.1397824 14.5427519,14.0851768 C14.5427519,14.0169199 14.5256649,13.9589013 14.491491,13.9111217 C14.4573163,13.8633413 14.4128905,13.8257999 14.3582121,13.7984975 L5.99241343,9.49830511 L7.18166929,8.3106328 L17.6799264,10.9112251 C17.7482743,10.9248771 17.8132046,10.9214641 17.8747181,10.9009869 C17.9362316,10.8805097 17.9874925,10.8497943 18.0285015,10.8088399 L22.9085505,5.9352889 C23.0589163,5.79877451 23.2434554,5.73051767 23.4621691,5.73051767 C23.6808828,5.73051767 23.8654226,5.79877451 24.0157884,5.9352889 C24.1661542,6.09910574 24.2413371,6.29022505 24.2413371,6.50864751 C24.2413371,6.72706997 24.1661542,6.911364 24.0157884,7.06152962 L24.0157884,7.06152962 Z" id="Shape" transform="translate(15.000000, 14.965693) rotate(134.000000) translate(-15.000000, -14.965693) "></path>
                </g>
            </g>
        </g>
    </g>
</svg>